<?xml version="1.0" encoding="UTF-8" standalone="no"?>
<!-- Created with Inkscape (http://www.inkscape.org/) -->

<svg
   xmlns:dc="http://purl.org/dc/elements/1.1/"
   xmlns:cc="http://creativecommons.org/ns#"
   xmlns:rdf="http://www.w3.org/1999/02/22-rdf-syntax-ns#"
   xmlns:svg="http://www.w3.org/2000/svg"
   xmlns="http://www.w3.org/2000/svg"
   xmlns:sodipodi="http://sodipodi.sourceforge.net/DTD/sodipodi-0.dtd"
   xmlns:inkscape="http://www.inkscape.org/namespaces/inkscape"
   version="1.0"
   width="299.99649"
   height="225.92412"
   viewBox="0 0 85.704 64.542"
   id="Layer_1"
   xml:space="preserve"
   inkscape:version="0.91 r13725"
   sodipodi:docname="bubble.svg"><metadata
     id="metadata8"><rdf:RDF><cc:Work
         rdf:about=""><dc:format>image/svg+xml</dc:format><dc:type
           rdf:resource="http://purl.org/dc/dcmitype/StillImage" /></cc:Work></rdf:RDF></metadata><sodipodi:namedview
     pagecolor="#ffffff"
     bordercolor="#666666"
     borderopacity="1"
     objecttolerance="10"
     gridtolerance="10"
     guidetolerance="10"
     inkscape:pageopacity="0"
     inkscape:pageshadow="2"
     inkscape:window-width="1442"
     inkscape:window-height="818"
     id="namedview6"
     showgrid="false"
     inkscape:zoom="1.0445985"
     inkscape:cx="149.99825"
     inkscape:cy="112.96206"
     inkscape:window-x="0"
     inkscape:window-y="0"
     inkscape:window-maximized="0"
     inkscape:current-layer="Layer_1" /><defs
     id="defs8" /><g
     transform="matrix(0.9486962,0,0,0.9486962,2.4834364,1.8361818)"
     id="g3"><path
       d="M 45.673,0 C 67.781,0 85.703,12.475 85.703,27.862 C 85.703,43.249 67.781,55.724 45.673,55.724 C 38.742,55.724 32.224,54.497 26.539,52.34 C 15.319,56.564 0,64.542 0,64.542 C 0,64.542 9.989,58.887 14.107,52.021 C 15.159,50.266 15.775,48.426 16.128,46.659 C 9.618,41.704 5.643,35.106 5.643,27.862 C 5.643,12.475 23.565,0 45.673,0 M 45.673,2.22 C 24.824,2.22 7.862,13.723 7.862,27.863 C 7.862,34.129 11.275,40.177 17.472,44.893 L 18.576,45.734 L 18.305,47.094 C 17.86,49.324 17.088,51.366 16.011,53.163 C 15.67,53.73 15.294,54.29 14.891,54.837 C 18.516,53.191 22.312,51.561 25.757,50.264 L 26.542,49.968 L 27.327,50.266 C 32.911,52.385 39.255,53.505 45.673,53.505 C 66.522,53.505 83.484,42.002 83.484,27.862 C 83.484,13.722 66.522,2.22 45.673,2.22 L 45.673,2.22 z "
       id="path5" /></g><path
     style="opacity:1;fill:#ffffff;fill-opacity:1;stroke:#ffffff;stroke-width:9.57305622;stroke-linejoin:miter;stroke-miterlimit:4;stroke-dasharray:none;stroke-opacity:1"
     d="m 64.114503,179.52243 c 2.029072,-4.03898 4.398721,-10.53267 5.265887,-14.43043 1.54602,-6.94906 1.538785,-7.11334 -0.37225,-8.45189 C 54.67773,146.60271 42.334647,130.26172 37.458608,114.87175 35.129423,107.52027 35.203803,89.555584 37.592555,82.519741 41.327204,71.519693 46.897663,62.412989 55.278878,53.605765 72.091963,35.93809 95.233957,24.050337 125.20254,17.686853 c 11.02444,-2.340913 13.96007,-2.56567 34.08157,-2.609354 23.13648,-0.05023 28.92569,0.565342 45.47201,4.83508 40.80525,10.52969 70.39255,34.543327 78.46857,63.686658 3.74275,13.506158 2.29683,27.904193 -4.16972,41.520603 -23.06536,48.56802 -105.65507,72.36637 -173.18017,49.90212 l -9.373248,-3.11829 -12.166126,4.94685 c -6.691369,2.72077 -14.696756,6.0873 -17.789749,7.48119 -3.092994,1.39389 -5.735398,2.53434 -5.87201,2.53434 -0.136611,0 1.411766,-3.30463 3.440836,-7.34362 z"
     id="path4136"
     inkscape:connector-curvature="0"
     transform="matrix(0.28568334,0,0,0.28568334,0,-3.7924882e-4)" /></svg>