<?xml version="1.0" encoding="UTF-8" standalone="no"?>
<svg
   xmlns:dc="http://purl.org/dc/elements/1.1/"
   xmlns:cc="http://creativecommons.org/ns#"
   xmlns:rdf="http://www.w3.org/1999/02/22-rdf-syntax-ns#"
   xmlns:svg="http://www.w3.org/2000/svg"
   xmlns="http://www.w3.org/2000/svg"
   xmlns:sodipodi="http://sodipodi.sourceforge.net/DTD/sodipodi-0.dtd"
   xmlns:inkscape="http://www.inkscape.org/namespaces/inkscape"
   sodipodi:docname="janitorial.svg"
   inkscape:version="1.0 (4035a4fb49, 2020-05-01)"
   id="svg1084"
   version="1.1"
   viewBox="0 0 400 100"
   height="100mm"
   width="400mm">
  <defs
     id="defs1078" />
  <sodipodi:namedview
     inkscape:window-maximized="1"
     inkscape:window-y="-8"
     inkscape:window-x="1272"
     inkscape:window-height="1377"
     inkscape:window-width="2560"
     showgrid="false"
     inkscape:document-rotation="0"
     inkscape:current-layer="layer1"
     inkscape:document-units="mm"
     inkscape:cy="287.24369"
     inkscape:cx="684.13851"
     inkscape:zoom="1.01"
     inkscape:pageshadow="2"
     inkscape:pageopacity="0.0"
     borderopacity="1.0"
     bordercolor="#666666"
     pagecolor="#ffffff"
     id="base" />
  <metadata
     id="metadata1081">
    <rdf:RDF>
      <cc:Work
         rdf:about="">
        <dc:format>image/svg+xml</dc:format>
        <dc:type
           rdf:resource="http://purl.org/dc/dcmitype/StillImage" />
        <dc:title></dc:title>
      </cc:Work>
    </rdf:RDF>
  </metadata>
  <g
     id="layer1"
     inkscape:groupmode="layer"
     inkscape:label="Layer 1">
    <rect
       y="1.9641743"
       x="2.5298207"
       height="94.767792"
       width="395.3631"
       id="rect1647"
       style="fill:#006575;fill-opacity:1;stroke:#dcdcdc;stroke-width:5.00724;stroke-miterlimit:4;stroke-dasharray:none;stroke-dashoffset:0;stroke-opacity:1" />
    <ellipse
       ry="11.264439"
       rx="11.39542"
       cy="19.647276"
       cx="23.969679"
       id="path1649"
       style="fill:#009200;fill-opacity:1;stroke:#ffffff;stroke-width:2;stroke-miterlimit:4;stroke-dasharray:none;stroke-dashoffset:0;stroke-opacity:1" />
    <ellipse
       style="fill:#0092ff;fill-opacity:1;stroke:#ffffff;stroke-width:2;stroke-miterlimit:4;stroke-dasharray:none;stroke-dashoffset:0;stroke-opacity:1"
       id="path1649-4"
       cx="14.669967"
       cy="81.208748"
       rx="11.39542"
       ry="11.264439" />
    <ellipse
       style="fill:#009200;fill-opacity:1;stroke:#ffffff;stroke-width:2;stroke-miterlimit:4;stroke-dasharray:none;stroke-dashoffset:0;stroke-opacity:1"
       id="path1649-3"
       cx="34.841171"
       cy="71.778053"
       rx="11.39542"
       ry="11.264439" />
    <ellipse
       style="fill:#916f00;fill-opacity:1;stroke:#ffffff;stroke-width:2;stroke-miterlimit:4;stroke-dasharray:none;stroke-dashoffset:0;stroke-opacity:1"
       id="path1649-7"
       cx="53.440594"
       cy="81.994637"
       rx="11.39542"
       ry="11.264439" />
    <ellipse
       style="fill:#ec9200;fill-opacity:1;stroke:#ffffff;stroke-width:2;stroke-miterlimit:4;stroke-dasharray:none;stroke-dashoffset:0;stroke-opacity:1"
       id="path1649-36"
       cx="165.29909"
       cy="18.861387"
       rx="11.39542"
       ry="11.264439" />
    <rect
       y="7.5812297"
       x="46.10561"
       height="24.362623"
       width="100.59406"
       id="rect1711"
       style="fill:#323232;fill-opacity:1;stroke:#141414;stroke-width:0.714375;stroke-miterlimit:4;stroke-dasharray:none;stroke-dashoffset:0;stroke-opacity:1" />
    <rect
       style="fill:#323232;fill-opacity:1;stroke:#141414;stroke-width:0.714375;stroke-miterlimit:4;stroke-dasharray:none;stroke-dashoffset:0;stroke-opacity:1"
       id="rect1711-6"
       width="100.59406"
       height="24.362623"
       x="78.327141"
       y="67.193687" />
    <rect
       style="fill:#e7d832;fill-opacity:1;stroke:#141414;stroke-width:0.495151;stroke-miterlimit:4;stroke-dasharray:none;stroke-dashoffset:0;stroke-opacity:1"
       id="rect1711-3"
       width="47.896622"
       height="24.581846"
       x="189.81406"
       y="7.3563533" />
    <rect
       y="7.858911"
       x="211.40469"
       height="24.079288"
       width="26.305975"
       id="rect1734"
       style="fill:#21ace6;fill-opacity:1;stroke:#141414;stroke-width:0.714375;stroke-miterlimit:4;stroke-dasharray:none;stroke-dashoffset:0;stroke-opacity:1" />
    <path
       id="path1736"
       d="m 194.1151,21.481023 c -2.8603,-0.192228 -0.46526,1.892421 0.26196,2.619637 0.55203,0.552025 0.12046,1.423268 0.52393,2.095709 0.28534,0.475578 0.91251,0.912514 1.30982,1.30982"
       style="fill:#ffffff;stroke:#000000;stroke-width:0.264583px;stroke-linecap:butt;stroke-linejoin:miter;stroke-opacity:1;fill-opacity:1" />
    <path
       style="fill:#ffffff;fill-opacity:1;stroke:#000000;stroke-width:0.264583px;stroke-linecap:butt;stroke-linejoin:miter;stroke-opacity:1"
       d="m 193.77097,17.970664 c -2.8603,-0.192228 -0.46526,1.892421 0.26196,2.619637 0.55203,0.552025 0.12046,1.423268 0.52393,2.095709 0.28534,0.475578 0.91251,0.912514 1.30982,1.30982"
       id="path1736-0" />
    <path
       style="fill:#ffffff;fill-opacity:1;stroke:#000000;stroke-width:0.264583px;stroke-linecap:butt;stroke-linejoin:miter;stroke-opacity:1"
       d="m 196.3906,25.043684 c -2.8603,-0.192228 -0.46526,1.892421 0.26196,2.619637 0.55203,0.552025 0.12046,1.423268 0.52393,2.095709 0.28534,0.475578 0.91251,0.912514 1.30982,1.30982"
       id="path1736-1" />
    <path
       style="fill:#ffffff;fill-opacity:1;stroke:#000000;stroke-width:0.264583px;stroke-linecap:butt;stroke-linejoin:miter;stroke-opacity:1"
       d="m 197.70042,23.471902 c -2.8603,-0.192228 -0.46526,1.892421 0.26196,2.619637 0.55203,0.552025 0.12046,1.423268 0.52393,2.095709 0.28534,0.475578 0.91251,0.912514 1.30982,1.30982"
       id="path1736-7" />
    <path
       style="fill:#ffffff;fill-opacity:1;stroke:#000000;stroke-width:0.264583px;stroke-linecap:butt;stroke-linejoin:miter;stroke-opacity:1"
       d="m 195.60471,18.232628 c -2.8603,-0.192228 -0.46526,1.892421 0.26196,2.619637 0.55203,0.552025 0.12046,1.423268 0.52393,2.095709 0.28534,0.475578 0.91251,0.912514 1.30982,1.30982"
       id="path1736-5" />
    <path
       style="fill:#ffffff;fill-opacity:1;stroke:#000000;stroke-width:0.264583px;stroke-linecap:butt;stroke-linejoin:miter;stroke-opacity:1"
       d="m 198.74828,19.280482 c -2.8603,-0.192228 -0.46526,1.892421 0.26196,2.619637 0.55203,0.552025 0.12046,1.423269 0.52393,2.095709 0.28534,0.475578 0.91251,0.912514 1.30982,1.30982"
       id="path1736-3" />
    <path
       style="fill:#ffffff;fill-opacity:1;stroke:#000000;stroke-width:0.264583px;stroke-linecap:butt;stroke-linejoin:miter;stroke-opacity:1"
       d="m 199.2722,22.947974 c -2.8603,-0.192228 -0.46526,1.892421 0.26196,2.619637 0.55203,0.552025 0.12046,1.423268 0.52393,2.095709 0.28534,0.475578 0.91251,0.912514 1.30982,1.30982"
       id="path1736-8" />
    <path
       style="fill:#ffffff;fill-opacity:1;stroke:#000000;stroke-width:0.264583px;stroke-linecap:butt;stroke-linejoin:miter;stroke-opacity:1"
       d="m 197.43846,21.376192 c -2.8603,-0.192228 -0.46526,1.892421 0.26196,2.619637 0.55203,0.552025 0.12046,1.423268 0.52393,2.095709 0.28534,0.475578 0.91251,0.912514 1.30982,1.30982"
       id="path1736-4" />
    <path
       style="fill:#ffffff;fill-opacity:1;stroke:#000000;stroke-width:0.264583px;stroke-linecap:butt;stroke-linejoin:miter;stroke-opacity:1"
       d="m 193.24704,21.900119 c -2.8603,-0.192228 -0.46526,1.892421 0.26196,2.619637 0.55203,0.552025 0.12046,1.423269 0.52393,2.095709 0.28534,0.475578 0.91251,0.912514 1.30982,1.30982"
       id="path1736-9" />
    <path
       style="fill:#ffffff;fill-opacity:1;stroke:#000000;stroke-width:0.264583px;stroke-linecap:butt;stroke-linejoin:miter;stroke-opacity:1"
       d="m 193.24704,21.900119 c -2.8603,-0.192228 -0.46526,1.892421 0.26196,2.619637 0.55203,0.552025 0.12046,1.423269 0.52393,2.095709 0.28534,0.475578 0.91251,0.912514 1.30982,1.30982"
       id="path1736-753" />
    <path
       style="fill:#ffffff;fill-opacity:1;stroke:#000000;stroke-width:0.264583px;stroke-linecap:butt;stroke-linejoin:miter;stroke-opacity:1"
       d="m 194.03293,21.900119 c -2.8603,-0.192228 -0.46526,1.892421 0.26196,2.619637 0.55203,0.552025 0.12046,1.423269 0.52393,2.095709 0.28534,0.475578 0.91251,0.912514 1.30982,1.30982"
       id="path1736-80" />
    <path
       style="fill:#ffffff;fill-opacity:1;stroke:#000000;stroke-width:0.264583px;stroke-linecap:butt;stroke-linejoin:miter;stroke-opacity:1"
       d="m 194.03293,21.900119 c -2.8603,-0.192228 -0.46526,1.892421 0.26196,2.619637 0.55203,0.552025 0.12046,1.423269 0.52393,2.095709 0.28534,0.475578 0.91251,0.912514 1.30982,1.30982"
       id="path1736-09" />
    <path
       style="fill:#ffffff;fill-opacity:1;stroke:#000000;stroke-width:0.264583px;stroke-linecap:butt;stroke-linejoin:miter;stroke-opacity:1"
       d="m 194.55686,21.900119 c -2.8603,-0.192228 -0.46526,1.892421 0.26196,2.619637 0.55203,0.552025 0.12046,1.423269 0.52393,2.095709 0.28534,0.475578 0.91251,0.912514 1.30982,1.30982"
       id="path1736-6" />
    <path
       style="fill:#ffffff;fill-opacity:1;stroke:#000000;stroke-width:0.264583px;stroke-linecap:butt;stroke-linejoin:miter;stroke-opacity:1"
       d="m 194.55686,21.900119 c -2.8603,-0.192228 -0.46526,1.892421 0.26196,2.619637 0.55203,0.552025 0.12046,1.423269 0.52393,2.095709 0.28534,0.475578 0.91251,0.912514 1.30982,1.30982"
       id="path1736-32" />
    <path
       style="fill:#ffffff;fill-opacity:1;stroke:#000000;stroke-width:0.264583px;stroke-linecap:butt;stroke-linejoin:miter;stroke-opacity:1"
       d="m 197.70042,21.376192 c -2.8603,-0.192228 -0.46526,1.892421 0.26196,2.619637 0.55203,0.552025 0.12046,1.423268 0.52393,2.095709 0.28534,0.475578 0.91251,0.912514 1.30982,1.30982"
       id="path1736-48" />
    <path
       style="fill:#ffffff;fill-opacity:1;stroke:#000000;stroke-width:0.264583px;stroke-linecap:butt;stroke-linejoin:miter;stroke-opacity:1"
       d="m 197.96239,21.114228 c -2.8603,-0.192228 -0.46526,1.892421 0.26196,2.619637 0.55203,0.552025 0.12046,1.423268 0.52393,2.095709 0.28534,0.475578 0.91251,0.912514 1.30982,1.30982"
       id="path1736-64" />
    <path
       style="fill:#ffffff;fill-opacity:1;stroke:#000000;stroke-width:0.264583px;stroke-linecap:butt;stroke-linejoin:miter;stroke-opacity:1"
       d="m 197.17649,18.232628 c -2.8603,-0.192228 -0.46526,1.892421 0.26196,2.619637 0.55203,0.552025 0.12046,1.423268 0.52393,2.095709 0.28534,0.475578 0.91251,0.912514 1.30982,1.30982"
       id="path1736-05" />
    <path
       style="fill:#ffffff;fill-opacity:1;stroke:#000000;stroke-width:0.264583px;stroke-linecap:butt;stroke-linejoin:miter;stroke-opacity:1"
       d="m 195.34275,18.232628 c -2.8603,-0.192228 -0.46526,1.892421 0.26196,2.619637 0.55203,0.552025 0.12046,1.423268 0.52393,2.095709 0.28534,0.475578 0.91251,0.912514 1.30982,1.30982"
       id="path1736-60" />
    <path
       style="fill:#ffffff;fill-opacity:1;stroke:#000000;stroke-width:0.264583px;stroke-linecap:butt;stroke-linejoin:miter;stroke-opacity:1"
       d="m 194.81882,20.066374 c -2.8603,-0.192228 -0.46526,1.892421 0.26196,2.619637 0.55203,0.552025 0.12046,1.423268 0.52393,2.095709 0.28534,0.475577 0.91251,0.912514 1.30982,1.30982"
       id="path1736-053" />
    <path
       style="fill:#ffffff;fill-opacity:1;stroke:#000000;stroke-width:0.264583px;stroke-linecap:butt;stroke-linejoin:miter;stroke-opacity:1"
       d="m 195.60471,21.638156 c -2.8603,-0.192228 -0.46526,1.892421 0.26196,2.619637 0.55203,0.552025 0.12046,1.423268 0.52393,2.095709 0.28534,0.475578 0.91251,0.912514 1.30982,1.30982"
       id="path1736-30" />
    <path
       style="fill:#ffffff;fill-opacity:1;stroke:#000000;stroke-width:0.264583px;stroke-linecap:butt;stroke-linejoin:miter;stroke-opacity:1"
       d="m 195.60471,22.68601 c -2.8603,-0.192228 -0.46526,1.892422 0.26196,2.619638 0.55203,0.552025 0.12046,1.423268 0.52393,2.095709 0.28534,0.475577 0.91251,0.912514 1.30982,1.30982"
       id="path1736-94" />
    <path
       style="fill:#ffffff;fill-opacity:1;stroke:#000000;stroke-width:0.264583px;stroke-linecap:butt;stroke-linejoin:miter;stroke-opacity:1"
       d="m 195.86668,22.947974 c -2.8603,-0.192228 -0.46526,1.892421 0.26196,2.619637 0.55203,0.552025 0.12046,1.423268 0.52393,2.095709 0.28534,0.475578 0.91251,0.912514 1.30982,1.30982"
       id="path1736-485" />
    <path
       style="fill:#ffffff;fill-opacity:1;stroke:#000000;stroke-width:0.264583px;stroke-linecap:butt;stroke-linejoin:miter;stroke-opacity:1"
       d="m 198.22435,23.471902 c -2.8603,-0.192228 -0.46526,1.892421 0.26196,2.619637 0.55203,0.552025 0.12046,1.423268 0.52393,2.095709 0.28534,0.475578 0.91251,0.912514 1.30982,1.30982"
       id="path1736-91" />
    <path
       style="fill:#ffffff;fill-opacity:1;stroke:#000000;stroke-width:0.264583px;stroke-linecap:butt;stroke-linejoin:miter;stroke-opacity:1"
       d="m 198.22435,23.471902 c -2.8603,-0.192228 -0.46526,1.892421 0.26196,2.619637 0.55203,0.552025 0.12046,1.423268 0.52393,2.095709 0.28534,0.475578 0.91251,0.912514 1.30982,1.30982"
       id="path1736-052" />
    <path
       style="fill:#ffffff;fill-opacity:1;stroke:#000000;stroke-width:0.264583px;stroke-linecap:butt;stroke-linejoin:miter;stroke-opacity:1"
       d="m 195.60471,21.376192 c -2.8603,-0.192228 -0.46526,1.892421 0.26196,2.619637 0.55203,0.552025 0.12046,1.423268 0.52393,2.095709 0.28534,0.475578 0.91251,0.912514 1.30982,1.30982"
       id="path1736-093" />
    <path
       style="fill:#ffffff;fill-opacity:1;stroke:#000000;stroke-width:0.264583px;stroke-linecap:butt;stroke-linejoin:miter;stroke-opacity:1"
       d="m 194.81882,20.066374 c -2.8603,-0.192228 -0.46526,1.892421 0.26196,2.619637 0.55203,0.552025 0.12046,1.423268 0.52393,2.095709 0.28534,0.475577 0.91251,0.912514 1.30982,1.30982"
       id="path1736-2" />
    <path
       style="fill:#ffffff;fill-opacity:1;stroke:#000000;stroke-width:0.264583px;stroke-linecap:butt;stroke-linejoin:miter;stroke-opacity:1"
       d="m 198.22435,19.280482 c -2.8603,-0.192228 -0.46526,1.892421 0.26196,2.619637 0.55203,0.552025 0.12046,1.423269 0.52393,2.095709 0.28534,0.475578 0.91251,0.912514 1.30982,1.30982"
       id="path1736-41" />
    <path
       style="fill:#ffffff;fill-opacity:1;stroke:#000000;stroke-width:0.264583px;stroke-linecap:butt;stroke-linejoin:miter;stroke-opacity:1"
       d="m 198.48631,20.852265 c -2.8603,-0.192228 -0.46526,1.892421 0.26196,2.619637 0.55203,0.552025 0.12046,1.423268 0.52393,2.095709 0.28534,0.475578 0.91251,0.912514 1.30982,1.30982"
       id="path1736-912" />
    <path
       style="fill:#ffffff;fill-opacity:1;stroke:#000000;stroke-width:0.264583px;stroke-linecap:butt;stroke-linejoin:miter;stroke-opacity:1"
       d="m 198.48631,21.638156 c -2.8603,-0.192228 -0.46526,1.892421 0.26196,2.619637 0.55203,0.552025 0.12046,1.423268 0.52393,2.095709 0.28534,0.475578 0.91251,0.912514 1.30982,1.30982"
       id="path1736-66" />
    <path
       style="fill:#ffffff;fill-opacity:1;stroke:#000000;stroke-width:0.264583px;stroke-linecap:butt;stroke-linejoin:miter;stroke-opacity:1"
       d="m 199.01024,22.424047 c -2.8603,-0.192228 -0.46526,1.892421 0.26196,2.619637 0.55203,0.552025 0.12046,1.423268 0.52393,2.095709 0.28534,0.475578 0.91251,0.912514 1.30982,1.30982"
       id="path1736-93" />
    <path
       style="fill:#ffffff;fill-opacity:1;stroke:#000000;stroke-width:0.264583px;stroke-linecap:butt;stroke-linejoin:miter;stroke-opacity:1"
       d="m 199.53417,22.424047 c -2.8603,-0.192228 -0.46526,1.892421 0.26196,2.619637 0.55203,0.552025 0.12046,1.423268 0.52393,2.095709 0.28534,0.475578 0.91251,0.912514 1.30982,1.30982"
       id="path1736-11" />
    <path
       style="fill:#ffffff;fill-opacity:1;stroke:#000000;stroke-width:0.264583px;stroke-linecap:butt;stroke-linejoin:miter;stroke-opacity:1"
       d="m 199.79613,18.232628 c -2.8603,-0.192228 -0.46526,1.892421 0.26196,2.619637 0.55203,0.552025 0.12046,1.423268 0.52393,2.095709 0.28534,0.475578 0.91251,0.912514 1.30982,1.30982"
       id="path1736-58" />
    <path
       style="fill:#ffffff;fill-opacity:1;stroke:#000000;stroke-width:0.264583px;stroke-linecap:butt;stroke-linejoin:miter;stroke-opacity:1"
       d="m 200.05809,17.7087 c -2.8603,-0.192228 -0.46526,1.892421 0.26196,2.619637 0.55203,0.552025 0.12046,1.423268 0.52393,2.095709 0.28534,0.475578 0.91251,0.912514 1.30982,1.30982"
       id="path1736-582" />
    <path
       style="fill:#ffffff;fill-opacity:1;stroke:#000000;stroke-width:0.264583px;stroke-linecap:butt;stroke-linejoin:miter;stroke-opacity:1"
       d="m 199.79613,21.638156 c -2.8603,-0.192228 -0.46526,1.892421 0.26196,2.619637 0.55203,0.552025 0.12046,1.423268 0.52393,2.095709 0.28534,0.475578 0.91251,0.912514 1.30982,1.30982"
       id="path1736-83" />
    <path
       style="fill:#ffffff;fill-opacity:1;stroke:#000000;stroke-width:0.264583px;stroke-linecap:butt;stroke-linejoin:miter;stroke-opacity:1"
       d="m 199.53417,23.209938 c -2.8603,-0.192228 -0.46526,1.892421 0.26196,2.619637 0.55203,0.552025 0.12046,1.423268 0.52393,2.095709 0.28534,0.475578 0.91251,0.912514 1.30982,1.30982"
       id="path1736-45" />
    <path
       style="fill:#ffffff;fill-opacity:1;stroke:#000000;stroke-width:0.264583px;stroke-linecap:butt;stroke-linejoin:miter;stroke-opacity:1"
       d="m 200.05809,23.471902 c -2.8603,-0.192228 -0.46526,1.892421 0.26196,2.619637 0.55203,0.552025 0.12046,1.423268 0.52393,2.095709 0.28534,0.475578 0.91251,0.912514 1.30982,1.30982"
       id="path1736-35" />
    <path
       style="fill:#ffffff;fill-opacity:1;stroke:#000000;stroke-width:0.264583px;stroke-linecap:butt;stroke-linejoin:miter;stroke-opacity:1"
       d="m 204.77344,20.066374 c -2.8603,-0.192228 -0.46526,1.892421 0.26196,2.619637 0.55203,0.552025 0.12046,1.423268 0.52393,2.095709 0.28534,0.475577 0.91251,0.912514 1.30982,1.30982"
       id="path1736-96" />
    <path
       style="fill:#ffffff;fill-opacity:1;stroke:#000000;stroke-width:0.264583px;stroke-linecap:butt;stroke-linejoin:miter;stroke-opacity:1"
       d="m 202.67773,20.066374 c -2.8603,-0.192228 -0.46526,1.892421 0.26196,2.619637 0.55203,0.552025 0.12046,1.423268 0.52393,2.095709 0.28534,0.475577 0.91251,0.912514 1.30982,1.30982"
       id="path1736-50" />
    <path
       style="fill:#ffffff;fill-opacity:1;stroke:#000000;stroke-width:0.264583px;stroke-linecap:butt;stroke-linejoin:miter;stroke-opacity:1"
       d="m 200.32006,20.852265 c -2.8603,-0.192228 -0.46526,1.892421 0.26196,2.619637 0.55203,0.552025 0.12046,1.423268 0.52393,2.095709 0.28534,0.475578 0.91251,0.912514 1.30982,1.30982"
       id="path1736-33" />
    <path
       style="fill:#ffffff;fill-opacity:1;stroke:#000000;stroke-width:0.264583px;stroke-linecap:butt;stroke-linejoin:miter;stroke-opacity:1"
       d="m 200.58202,21.114228 c -2.8603,-0.192228 -0.46526,1.892421 0.26196,2.619637 0.55203,0.552025 0.12046,1.423268 0.52393,2.095709 0.28534,0.475578 0.91251,0.912514 1.30982,1.30982"
       id="path1736-08" />
    <path
       style="fill:#ffffff;fill-opacity:1;stroke:#000000;stroke-width:0.264583px;stroke-linecap:butt;stroke-linejoin:miter;stroke-opacity:1"
       d="m 202.9397,22.424047 c -2.8603,-0.192228 -0.46526,1.892421 0.26196,2.619637 0.55203,0.552025 0.12046,1.423268 0.52393,2.095709 0.28534,0.475578 0.91251,0.912514 1.30982,1.30982"
       id="path1736-88" />
    <path
       style="fill:#ffffff;fill-opacity:1;stroke:#000000;stroke-width:0.264583px;stroke-linecap:butt;stroke-linejoin:miter;stroke-opacity:1"
       d="m 202.9397,22.424047 c -2.8603,-0.192228 -0.46526,1.892421 0.26196,2.619637 0.55203,0.552025 0.12046,1.423268 0.52393,2.095709 0.28534,0.475578 0.91251,0.912514 1.30982,1.30982"
       id="path1736-504" />
    <path
       style="fill:#ffffff;fill-opacity:1;stroke:#000000;stroke-width:0.264583px;stroke-linecap:butt;stroke-linejoin:miter;stroke-opacity:1"
       d="m 203.46362,21.900119 c -2.8603,-0.192228 -0.46526,1.892421 0.26196,2.619637 0.55203,0.552025 0.12046,1.423269 0.52393,2.095709 0.28534,0.475578 0.91251,0.912514 1.30982,1.30982"
       id="path1736-62" />
    <path
       style="fill:#ffffff;fill-opacity:1;stroke:#000000;stroke-width:0.264583px;stroke-linecap:butt;stroke-linejoin:miter;stroke-opacity:1"
       d="m 203.72559,21.376192 c -2.8603,-0.192228 -0.46526,1.892421 0.26196,2.619637 0.55203,0.552025 0.12046,1.423268 0.52393,2.095709 0.28534,0.475578 0.91251,0.912514 1.30982,1.30982"
       id="path1736-85" />
    <path
       style="fill:#ffffff;fill-opacity:1;stroke:#000000;stroke-width:0.264583px;stroke-linecap:butt;stroke-linejoin:miter;stroke-opacity:1"
       d="m 201.89184,21.114228 c -2.8603,-0.192228 -0.46526,1.892421 0.26196,2.619637 0.55203,0.552025 0.12046,1.423268 0.52393,2.095709 0.28534,0.475578 0.91251,0.912514 1.30982,1.30982"
       id="path1736-74" />
    <path
       style="fill:#ffffff;fill-opacity:1;stroke:#000000;stroke-width:0.264583px;stroke-linecap:butt;stroke-linejoin:miter;stroke-opacity:1"
       d="m 197.43846,23.995829 c -2.8603,-0.192228 -0.46526,1.892421 0.26196,2.619637 0.55203,0.552025 0.12046,1.423268 0.52393,2.095709 0.28534,0.475578 0.91251,0.912514 1.30982,1.30982"
       id="path1736-56" />
    <path
       style="fill:#ffffff;fill-opacity:1;stroke:#000000;stroke-width:0.264583px;stroke-linecap:butt;stroke-linejoin:miter;stroke-opacity:1"
       d="m 194.81882,23.733865 c -2.8603,-0.192228 -0.46526,1.892421 0.26196,2.619637 0.55203,0.552025 0.12046,1.423268 0.52393,2.095709 0.28534,0.475578 0.91251,0.912514 1.30982,1.30982"
       id="path1736-28" />
    <path
       style="fill:#ffffff;fill-opacity:1;stroke:#000000;stroke-width:0.264583px;stroke-linecap:butt;stroke-linejoin:miter;stroke-opacity:1"
       d="m 194.81882,23.733865 c -2.8603,-0.192228 -0.46526,1.892421 0.26196,2.619637 0.55203,0.552025 0.12046,1.423268 0.52393,2.095709 0.28534,0.475578 0.91251,0.912514 1.30982,1.30982"
       id="path1736-410" />
    <path
       style="fill:#ffffff;fill-opacity:1;stroke:#000000;stroke-width:0.264583px;stroke-linecap:butt;stroke-linejoin:miter;stroke-opacity:1"
       d="m 194.81882,23.733865 c -2.8603,-0.192228 -0.46526,1.892421 0.26196,2.619637 0.55203,0.552025 0.12046,1.423268 0.52393,2.095709 0.28534,0.475578 0.91251,0.912514 1.30982,1.30982"
       id="path1736-79" />
    <rect
       transform="rotate(-31.901428)"
       y="98.87471"
       x="154.92867"
       height="25.609516"
       width="1.9993452"
       id="rect2146"
       style="fill:#6c3500;fill-opacity:1;stroke:none;stroke-width:0.370891;stroke-miterlimit:4;stroke-dasharray:none;stroke-dashoffset:0;stroke-opacity:1" />
    <rect
       y="-0.52392739"
       x="317.5"
       height="5.239274"
       width="34.317245"
       id="rect2148"
       style="fill:#6c3500;fill-opacity:1;stroke:none;stroke-width:0.714375;stroke-miterlimit:4;stroke-dasharray:none;stroke-dashoffset:0;stroke-opacity:1" />
    <path
       id="path2150"
       d="m 297.59076,65.752887 c 1.60441,0.751414 3.2771,0.523927 4.97732,0.523927 1.01385,0 2.73187,0.31187 3.66747,0 0.81094,-0.270316 1.66759,-1.715478 2.09571,-2.357672 0.36981,-0.554699 1.3966,-1.570176 1.57178,-2.095709 0.16799,-0.50391 0.0277,-1.103244 0.26197,-1.571784 0.11046,-0.220906 0.41349,-0.30302 0.52392,-0.523928 0.15367,-0.307314 0.093,-0.971928 0.26197,-1.309817 0.26008,-0.52015 0.7807,-1.037461 1.04785,-1.571781 1.26503,-2.530018 -0.33747,0.488537 0.26197,-1.30982 0.27257,-0.817674 0.17465,0.08732 0.52392,-0.261964 0.80407,-0.804071 -0.15306,-0.217816 0.26197,-1.047853 0.28231,-0.564589 2.55198,-2.323849 3.14357,-2.61964 1.70182,-0.850916 3.67752,-1.529791 5.50124,-1.833745 1.27307,-0.212177 2.48248,-0.914813 3.66749,-1.309817 0.0736,-0.02453 1.30982,0.01717 1.30982,0 0,-0.08732 -0.3493,0 -0.26196,0 0.26196,0 0.53737,-0.08284 0.78589,0 0.0828,0.02761 -0.039,0.183862 0,0.261964 0.91345,1.826906 0.01,3.172058 0.52393,4.715346 0.30274,0.908222 0.65945,1.842825 1.04786,2.619637 0.30723,0.614508 2.51018,1.360662 3.14354,1.571781 0.65402,0.218001 1.68997,-0.08347 2.35767,0 1.58816,0.198519 3.41466,-0.05057 4.97732,0.261964 1.49119,0.298238 2.98529,0.680834 4.45339,1.047856 0.89431,0.223581 2.31769,0.248637 3.14356,0.523928 0.40865,0.136215 2.26714,2.131335 2.35768,2.357673 0.33493,0.837348 0,2.477074 0,3.405526 0,0.845304 0.0116,2.875814 0,2.881601 -0.69694,0.348464 -1.62079,0.376549 -2.35768,0.523927 -0.74681,0.149363 -1.34167,0.678172 -2.09571,0.785892 -1.92402,0.27486 -9.22472,1.262835 -10.47856,3.143565 -0.14531,0.217966 0,0.523925 0,0.785889 0,1.375281 1.08133,1.417151 1.83375,2.357673 1.10858,-0.416827 0.37521,0.824775 0.52393,1.047856 0.2055,0.308253 0.66873,0.43443 0.78589,0.785892 0.7007,2.102067 -0.7007,-1.054214 0,1.047853 0.11729,0.351864 1.08961,1.378167 0.78589,1.833748 -0.57846,0.867685 -5.11043,1.424694 -6.28713,1.571781 -2.86682,0.358354 -5.74035,0.261964 -8.64479,0.261964 -1.44666,0 -3.02281,0.178821 -4.45338,0 -1.51644,-0.189556 -2.95807,-0.834237 -4.45339,-1.047856 -2.38326,-0.340466 -4.49919,-0.580983 -6.81106,-1.571781 -1.81428,-0.777547 -3.50777,-1.753883 -5.23926,-2.619637 -1.16176,-0.580871 -1.88375,-1.591781 -3.14356,-2.095709 -0.29322,-0.117277 -0.75259,0.09843 -1.04786,0 -1.27804,-0.426014 -0.68927,-0.556995 -1.83375,-0.785892 -2.33063,-0.466127 -5.08415,0.148786 -7.33499,0.523928 -1.52379,0.253963 -2.75254,-0.46614 -4.19142,-0.785892 -3.22107,-0.715793 -2.95294,-1.139264 -0.78589,-3.667492 0.28413,-0.331494 0.39539,-0.852599 0.78589,-1.047854 0.56663,-0.283313 1.67455,-0.353147 2.35767,-0.523928 0.32248,-0.08062 0.73346,0.104802 1.04786,0 3.22683,-1.07561 6.3486,-1.032346 9.4307,-2.8816 z"
       style="fill:#023500;stroke:none;stroke-width:0.264583px;stroke-linecap:butt;stroke-linejoin:miter;stroke-opacity:1;fill-opacity:1" />
  </g>
</svg>
