<?xml version="1.0" encoding="UTF-8" standalone="no"?>
<!-- Created with Inkscape (http://www.inkscape.org/) -->

<svg
   xmlns:dc="http://purl.org/dc/elements/1.1/"
   xmlns:cc="http://creativecommons.org/ns#"
   xmlns:rdf="http://www.w3.org/1999/02/22-rdf-syntax-ns#"
   xmlns:svg="http://www.w3.org/2000/svg"
   xmlns="http://www.w3.org/2000/svg"
   xmlns:sodipodi="http://sodipodi.sourceforge.net/DTD/sodipodi-0.dtd"
   xmlns:inkscape="http://www.inkscape.org/namespaces/inkscape"
   width="14in"
   height="8.5in"
   viewBox="0 0 1260 765"
   id="svg4138"
   version="1.1"
   inkscape:version="0.91 r13725"
   sodipodi:docname="stem.svg">
  <defs
     id="defs4140">
    <inkscape:path-effect
       effect="spiro"
       id="path-effect4726"
       is_visible="true" />
    <inkscape:path-effect
       effect="spiro"
       id="path-effect4722"
       is_visible="true" />
    <inkscape:path-effect
       effect="spiro"
       id="path-effect4718"
       is_visible="true" />
    <inkscape:path-effect
       effect="spiro"
       id="path-effect4698"
       is_visible="true" />
    <inkscape:path-effect
       effect="spiro"
       id="path-effect4726-7"
       is_visible="true" />
  </defs>
  <sodipodi:namedview
     id="base"
     pagecolor="#ffffff"
     bordercolor="#666666"
     borderopacity="1.0"
     inkscape:pageopacity="0.0"
     inkscape:pageshadow="2"
     inkscape:zoom="0.35"
     inkscape:cx="121.67087"
     inkscape:cy="405.71429"
     inkscape:document-units="px"
     inkscape:current-layer="layer1"
     showgrid="false"
     units="in"
     inkscape:window-width="1920"
     inkscape:window-height="1017"
     inkscape:window-x="1672"
     inkscape:window-y="-8"
     inkscape:window-maximized="1" />
  <metadata
     id="metadata4143">
    <rdf:RDF>
      <cc:Work
         rdf:about="">
        <dc:format>image/svg+xml</dc:format>
        <dc:type
           rdf:resource="http://purl.org/dc/dcmitype/StillImage" />
        <dc:title></dc:title>
      </cc:Work>
    </rdf:RDF>
  </metadata>
  <g
     inkscape:label="Layer 1"
     inkscape:groupmode="layer"
     id="layer1"
     transform="translate(0,-287.3622)">
    <rect
       style="opacity:1;fill:#ffffff;fill-opacity:0;stroke:#005000;stroke-width:10;stroke-linejoin:miter;stroke-miterlimit:4;stroke-dasharray:none;stroke-opacity:1"
       id="rect4686"
       width="1257.1428"
       height="760"
       x="0"
       y="289.50507" />
    <rect
       style="opacity:1;fill:#ffffff;fill-opacity:0;stroke:#a85000;stroke-width:10;stroke-linejoin:miter;stroke-miterlimit:4;stroke-dasharray:none;stroke-opacity:1"
       id="rect4688"
       width="5.7142859"
       height="14.285714"
       x="1711.4286"
       y="412.36221" />
    <rect
       style="opacity:1;fill:#a85000;fill-opacity:1;stroke:#a85000;stroke-width:10;stroke-linejoin:miter;stroke-miterlimit:4;stroke-dasharray:none;stroke-opacity:1"
       id="rect4692"
       width="1237.1428"
       height="740"
       x="11.428572"
       y="300.93362" />
    <path
       style="fill:none;fill-rule:evenodd;stroke:#000000;stroke-width:30;stroke-linecap:butt;stroke-linejoin:miter;stroke-opacity:0.27761194;stroke-miterlimit:4;stroke-dasharray:none;fill-opacity:1"
       d="M 94.285714,969.50506 C 108.9214,963.04305 124.28909,958.24065 140,955.21934 c 12.30231,-2.36581 24.78813,-3.63953 37.14286,-5.71428 15.29132,-2.56789 30.3673,-6.36036 45.71428,-8.57143 8.53674,-1.2299 17.13544,-1.96723 25.71429,-2.85714 8.57817,-0.88984 17.13977,-1.93266 25.71428,-2.85715 9.5162,-1.02602 19.04744,-1.90622 28.57143,-2.85714 8.58177,-0.85684 17.15849,-1.77121 25.71429,-2.85714 6.68103,-0.84798 13.34878,-1.80052 20,-2.85715 9.47762,-1.35641 19.01289,-2.30994 28.57143,-2.85714 3.80724,-0.21796 7.63319,-0.37112 11.42857,0 1.90744,0.18652 3.86451,0.50147 5.71428,0 2.06064,-0.55863 3.73212,-2.06386 5.71429,-2.85714 1.78908,-0.71601 3.76749,-0.8245 5.68995,-0.6917 1.92245,0.1328 3.82148,0.49663 5.73862,0.6917 1.89871,0.19319 3.81851,0.22008 5.71429,0 3.0129,-0.34977 5.95124,-1.32922 8.57143,-2.85714 3.62391,1.44938 7.80466,1.44938 11.42857,0 1.97822,-0.79119 3.77091,-1.98387 5.71428,-2.85715 3.08864,-1.38792 6.48827,-1.93827 9.86348,-2.21021 3.37521,-0.27194 6.77039,-0.27925 10.13652,-0.64693 0.95226,-0.10402 1.92859,-0.23538 2.85715,0 0.49497,0.12547 0.96338,0.35283 1.46756,0.43365 0.2521,0.0404 0.51332,0.0429 0.7599,-0.0234 0.24657,-0.0662 0.47802,-0.2049 0.62968,-0.41029 0.14512,-0.19654 0.21045,-0.44358 0.2202,-0.6877 0.01,-0.24412 -0.0329,-0.48731 -0.0865,-0.72567 -0.0536,-0.23836 -0.11853,-0.4746 -0.15448,-0.71626 -0.036,-0.24166 -0.0422,-0.49146 0.0208,-0.72751 0.0688,-0.25756 0.21933,-0.49053 0.41638,-0.67006 0.19706,-0.17954 0.43929,-0.30657 0.69528,-0.38096 0.51197,-0.14878 1.06492,-0.0875 1.57662,0.0622 0.51171,0.14969 0.99369,0.38425 1.48634,0.58807 0.49265,0.20382 1.00694,0.37933 1.53966,0.40079 0.75589,0.0304 1.51935,-0.26793 2.05428,-0.80287 0.53494,-0.53493 0.83331,-1.29839 0.80287,-2.05428 1.82234,-1.10653 3.73565,-2.06318 5.71428,-2.85714 2.79576,-1.12184 5.71002,-1.91526 8.57143,-2.85714 4.87365,-1.60425 9.59322,-3.63908 14.28572,-5.71429 8.57853,-3.79377 17.09314,-7.73265 25.71428,-11.42857 15.29166,-6.5556 30.93687,-12.35549 45.71429,-20 6.82122,-3.52869 13.43694,-7.44021 20,-11.42857 4.74586,-2.88406 9.4674,-5.81011 14.28571,-8.57143 4.82031,-2.76246 9.74759,-5.36645 14.28572,-8.57143 3.89043,-2.74755 7.47144,-5.92085 11.42857,-8.57143 4.61524,-3.0914 9.69669,-5.44124 14.28571,-8.57142 5.03971,-3.4376 9.40906,-7.76333 14.28572,-11.42858 7.18565,-5.40067 15.37789,-9.29957 22.85714,-14.28571 5.71896,-3.81262 11.03777,-8.27097 17.14286,-11.42857 2.48411,-1.2848 5.08005,-2.34395 7.56092,-3.635 2.48087,-1.29106 4.87403,-2.83971 6.72479,-4.93643 1.21437,-1.37575 2.18291,-2.97307 3.54115,-4.20699 0.67913,-0.61696 1.45779,-1.13903 2.32612,-1.43541 0.86834,-0.29637 1.83187,-0.35642 2.70416,-0.0719 0.50036,0.16321 0.96677,0.43608 1.48481,0.52897 0.25902,0.0465 0.53072,0.0455 0.78029,-0.038 0.24956,-0.0835 0.47513,-0.25526 0.59204,-0.49102 0.11123,-0.22431 0.11773,-0.48826 0.0732,-0.73463 -0.0446,-0.24637 -0.13682,-0.48107 -0.21666,-0.71837 -0.0798,-0.2373 -0.14827,-0.48321 -0.14236,-0.73351 0.003,-0.12515 0.0248,-0.25049 0.0716,-0.36661 0.0468,-0.11612 0.11891,-0.22287 0.21423,-0.30402 0.0959,-0.0816 0.21349,-0.13595 0.33618,-0.16435 0.12268,-0.0284 0.25041,-0.0315 0.37557,-0.0176 0.25032,0.0278 0.48774,0.1219 0.72272,0.21254 0.23498,0.0906 0.47514,0.17968 0.72643,0.19659 0.12565,0.008 0.25326,-0.002 0.37383,-0.0379 0.12057,-0.0363 0.23398,-0.0996 0.32241,-0.18928 0.0885,-0.0897 0.15024,-0.20416 0.18497,-0.32534 0.0347,-0.12118 0.0431,-0.24902 0.0331,-0.37468 -0.0199,-0.25132 -0.11131,-0.49076 -0.20298,-0.72561 -0.0917,-0.23485 -0.18554,-0.47291 -0.21087,-0.72375 -0.0127,-0.12542 -0.008,-0.25332 0.0231,-0.37555 0.0308,-0.12224 0.0881,-0.23874 0.17269,-0.33221 0.0841,-0.093 0.19368,-0.16139 0.31169,-0.20373 0.11802,-0.0423 0.24435,-0.0591 0.36972,-0.0572 0.25072,0.004 0.49406,0.0815 0.7301,0.16609 0.23604,0.0846 0.47149,0.17778 0.71943,0.21528 0.24794,0.0375 0.51466,0.0141 0.72621,-0.12049 0.21454,-0.13654 0.35038,-0.37581 0.4003,-0.62517 0.0499,-0.24936 0.0212,-0.50869 -0.0387,-0.75585 -0.11979,-0.4943 -0.36415,-0.96751 -0.36164,-1.47612 0.001,-0.28757 0.0841,-0.57249 0.22408,-0.82368 0.14,-0.25119 0.33621,-0.46914 0.56243,-0.64669 0.45242,-0.3551 1.01428,-0.54476 1.57889,-0.65432 0.56461,-0.10956 1.14076,-0.14513 1.70991,-0.22796 0.56914,-0.0828 1.141,-0.21674 1.63897,-0.5045 0.58499,-0.33805 1.03699,-0.86065 1.47986,-1.37091 0.44287,-0.51025 0.89954,-1.00848 1.37729,-1.48623 l 8.57142,-8.57143 c 0.48377,-0.48377 1.01213,-0.91998 1.56428,-1.32397 0.27608,-0.20199 0.55237,-0.40712 0.78873,-0.65441 0.23636,-0.24729 0.43309,-0.54414 0.50414,-0.87876 0.0509,-0.23979 0.0352,-0.48936 -0.007,-0.73089 -0.0419,-0.24152 -0.10963,-0.47773 -0.16307,-0.71698 -0.0534,-0.23924 -0.0928,-0.48424 -0.0766,-0.72885 0.0161,-0.2446 0.0913,-0.49058 0.24643,-0.68042 0.15947,-0.19521 0.39493,-0.31966 0.64113,-0.37371 0.2462,-0.054 0.50316,-0.0417 0.75128,0.003 0.49623,0.0889 0.96516,0.30333 1.46473,0.37095 0.77168,0.10446 1.58567,-0.1702 2.1363,-0.72084 0.55064,-0.55064 0.8253,-1.36463 0.72084,-2.13631"
       id="path4724"
       inkscape:path-effect="#path-effect4726"
       inkscape:original-d="M 94.285714,969.50506 C 175.14041,951.53735 72.229624,976.07177 140,955.21934 c 4.38448,-1.34907 33.96129,-5.07797 37.14286,-5.71428 45.90738,-9.18148 -0.18888,-3.17106 45.71428,-8.57143 8.56511,-1.00766 17.14286,-1.90476 25.71429,-2.85714 8.57143,-0.95239 17.13749,-1.95433 25.71428,-2.85715 9.51872,-1.00197 19.05271,-1.85517 28.57143,-2.85714 8.57679,-0.90282 17.15671,-1.78745 25.71429,-2.85714 6.68235,-0.8353 13.28276,-2.37734 20,-2.85715 66.97658,0 -6.18587,2.10819 28.57143,-2.85714 3.77123,-0.53875 7.61904,0 11.42857,0 1.90476,0 3.86639,0.46197 5.71428,0 2.06601,-0.5165 3.61368,-2.50704 5.71429,-2.85714 3.75769,-0.62628 7.61905,0 11.42857,0 1.90476,0 3.84651,0.37355 5.71429,0 2.95321,-0.59064 5.71428,-1.90476 8.57143,-2.85714 3.80952,0 7.67088,0.62628 11.42857,0 2.10061,-0.35011 3.6061,-2.55598 5.71428,-2.85715 48.24046,-6.89149 -4.2061,5.21156 20,-2.85714 0.90351,-0.30117 1.90476,0 2.85715,0 0.95238,0 2.1837,0.67344 2.85714,0 0.67343,-0.67344 -0.67344,-2.18371 0,-2.85714 0.66516,-0.66516 4.52242,0.59593 5.71428,0 1.20468,-0.60234 1.90477,-1.90476 2.85715,-2.85715 1.90476,-0.95238 3.73701,-2.06623 5.71428,-2.85714 2.79629,-1.11851 5.71429,-1.90476 8.57143,-2.85714 4.76191,-1.90476 9.57167,-3.69398 14.28572,-5.71429 8.62145,-3.69491 17.12085,-7.66894 25.71428,-11.42857 10.4799,-4.58495 36.83302,-15.55936 45.71429,-20 6.86771,-3.43386 13.36761,-7.55968 20,-11.42857 4.79681,-2.79814 9.52381,-5.71429 14.28571,-8.57143 4.76191,-2.85714 9.6651,-5.49102 14.28572,-8.57143 3.96214,-2.64143 7.46642,-5.93 11.42857,-8.57143 4.62061,-3.08041 9.73628,-5.38682 14.28571,-8.57142 4.99585,-3.4971 9.27181,-7.95741 14.28572,-11.42858 7.38718,-5.1142 15.29937,-9.42714 22.85714,-14.28571 5.77697,-3.71377 11.34883,-7.74146 17.14286,-11.42857 4.68509,-2.98143 9.57653,-5.62819 14.28571,-8.57143 2.91191,-1.81994 5.50009,-4.17862 8.57143,-5.71429 0.85183,-0.42591 2.18371,0.67344 2.85714,0 0.67344,-0.67343 -0.67343,-2.1837 0,-2.85714 0.67344,-0.67343 2.18371,0.67344 2.85714,0 0.67344,-0.67343 -0.67343,-2.18371 0,-2.85714 0.67344,-0.67344 2.18371,0.67343 2.85715,0 0.67343,-0.67344 -0.67344,-2.18371 0,-2.85714 1.50584,-1.50585 3.94236,-1.67586 5.71428,-2.85715 1.12067,-0.74711 1.90476,-1.90476 2.85715,-2.85714 2.85714,-2.85714 5.71428,-5.71429 8.57142,-8.57143 0.95239,-0.95238 2.25481,-1.65246 2.85715,-2.85714 0.42591,-0.85184 -0.67344,-2.18371 0,-2.85714 0.67343,-0.67344 2.1837,0.67343 2.85714,0 3.80952,-3.80953 -4.7619,-2.85715 2.85714,-2.85715"
       inkscape:connector-curvature="0" />
    <path
       style="fill:none;fill-opacity:1;fill-rule:evenodd;stroke:#000000;stroke-width:30;stroke-linecap:butt;stroke-linejoin:miter;stroke-miterlimit:4;stroke-dasharray:none;stroke-opacity:0.27761195"
       d="m 29.795051,820.3541 c 14.635695,-6.46199 30.003383,-11.26439 45.71429,-14.2857 12.302309,-2.36581 24.788129,-3.63955 37.142859,-5.7143 15.29132,-2.5679 30.36729,-6.36037 45.71428,-8.5714 8.53674,-1.22988 17.13544,-1.96718 25.71429,-2.8571 8.57818,-0.88985 17.13977,-1.93271 25.71428,-2.8572 9.51619,-1.02603 19.04743,-1.90617 28.57142,-2.8571 8.58177,-0.85685 17.1585,-1.77126 25.7143,-2.8572 6.68102,-0.84798 13.34878,-1.80051 20,-2.8571 9.47761,-1.35645 19.01287,-2.31 28.5714,-2.8572 3.80725,-0.21796 7.63321,-0.37112 11.4286,0 1.90745,0.18651 3.86452,0.50147 5.7143,0 2.06063,-0.55863 3.73213,-2.06383 5.7143,-2.8571 1.78907,-0.71599 3.76747,-0.82448 5.68992,-0.69168 1.92244,0.1328 3.82145,0.49662 5.73858,0.69168 1.89871,0.19319 3.81851,0.22008 5.7143,0 3.01292,-0.34977 5.95128,-1.3292 8.5715,-2.8571 3.62389,1.44939 7.80461,1.44939 11.4285,0 1.97823,-0.7912 3.77092,-1.98391 5.7143,-2.8572 3.08863,-1.38793 6.48826,-1.93827 9.86348,-2.2102 3.37521,-0.27193 6.77039,-0.27922 10.13652,-0.6469 0.95228,-0.10402 1.92863,-0.23538 2.8572,0 0.49496,0.12547 0.96336,0.35283 1.46754,0.43364 0.25209,0.0404 0.51331,0.0429 0.75988,-0.0234 0.24658,-0.0662 0.47802,-0.2049 0.62968,-0.41028 0.14513,-0.19655 0.21046,-0.44358 0.22021,-0.68771 0.01,-0.24413 -0.0329,-0.48733 -0.0865,-0.72569 -0.0536,-0.23836 -0.11854,-0.47461 -0.1545,-0.71627 -0.036,-0.24167 -0.0422,-0.49147 0.0208,-0.72753 0.0688,-0.25756 0.21933,-0.49053 0.41639,-0.67006 0.19705,-0.17953 0.43929,-0.30657 0.69528,-0.38096 0.51197,-0.14878 1.06492,-0.0875 1.57662,0.0622 0.51171,0.14969 0.99369,0.38425 1.48634,0.58807 0.49266,0.20382 1.00695,0.37933 1.53967,0.40078 0.75588,0.0304 1.51932,-0.26794 2.05424,-0.80286 0.53492,-0.53492 0.8333,-1.29836 0.80286,-2.05424 1.82234,-1.10656 3.73566,-2.06324 5.7143,-2.8572 2.79574,-1.12184 5.71,-1.91523 8.5714,-2.8571 4.87368,-1.60423 9.59328,-3.63908 14.2858,-5.7143 8.5785,-3.79376 17.09309,-7.73267 25.7142,-11.4286 15.29165,-6.55564 30.93685,-12.35554 45.7143,-20 6.82123,-3.52866 13.43697,-7.44013 20,-11.4285 4.74586,-2.88407 9.46738,-5.81018 14.2857,-8.5715 4.82032,-2.76247 9.74765,-5.36642 14.2858,-8.5714 3.89042,-2.74753 7.47139,-5.92082 11.4285,-8.5714 4.61522,-3.0914 9.69668,-5.44123 14.2857,-8.5714 5.03974,-3.43761 9.40912,-7.76334 14.2858,-11.4286 7.18565,-5.40065 15.37786,-9.29956 22.8571,-14.2857 5.71897,-3.81263 11.03779,-8.27098 17.1429,-11.42859 2.48411,-1.2848 5.08005,-2.34395 7.56092,-3.63501 2.48086,-1.29105 4.87402,-2.8397 6.72478,-4.93642 1.21436,-1.37575 2.18291,-2.97305 3.54115,-4.20697 0.67911,-0.61696 1.45777,-1.13903 2.3261,-1.43541 0.86834,-0.29637 1.83186,-0.35643 2.70415,-0.0719 0.50035,0.1632 0.96675,0.43606 1.48478,0.52895 0.25902,0.0464 0.53071,0.0455 0.78028,-0.038 0.24956,-0.0835 0.47512,-0.25524 0.59204,-0.49099 0.11124,-0.2243 0.11775,-0.48825 0.0732,-0.73462 -0.0446,-0.24637 -0.1368,-0.48107 -0.21663,-0.71837 -0.0798,-0.2373 -0.14827,-0.4832 -0.14236,-0.7335 0.003,-0.12515 0.0248,-0.25049 0.0716,-0.36661 0.0467,-0.11613 0.11889,-0.22288 0.2142,-0.30404 0.0959,-0.0816 0.21347,-0.13597 0.33615,-0.16439 0.12268,-0.0284 0.25041,-0.0315 0.37557,-0.0176 0.25032,0.0278 0.48776,0.12183 0.72274,0.21246 0.23499,0.0906 0.47514,0.17966 0.72643,0.19659 0.12564,0.008 0.25325,-0.002 0.37383,-0.0379 0.12058,-0.0363 0.23402,-0.0996 0.32248,-0.18917 0.0885,-0.0897 0.15033,-0.20406 0.18513,-0.32521 0.0348,-0.12114 0.0433,-0.24897 0.0334,-0.37462 -0.0198,-0.25131 -0.11098,-0.49078 -0.20256,-0.72564 -0.0916,-0.23486 -0.18543,-0.47289 -0.21088,-0.72369 -0.0127,-0.1254 -0.008,-0.25328 0.0228,-0.37554 0.0307,-0.12226 0.0878,-0.23882 0.17218,-0.33244 0.0839,-0.0931 0.1933,-0.16177 0.31119,-0.20439 0.11788,-0.0426 0.24414,-0.0598 0.36949,-0.0581 0.25069,0.003 0.49418,0.0802 0.73029,0.16448 0.23612,0.0843 0.47149,0.17737 0.71931,0.21533 0.24782,0.038 0.51435,0.0158 0.72682,-0.11731 0.2159,-0.13523 0.35415,-0.37356 0.40633,-0.62291 0.0522,-0.24935 0.0255,-0.50946 -0.0334,-0.7573 -0.11788,-0.49568 -0.364,-0.96751 -0.37289,-1.47693 -0.005,-0.28973 0.069,-0.57882 0.20075,-0.83692 0.13173,-0.2581 0.32011,-0.48558 0.54039,-0.67384 0.44056,-0.37653 0.9989,-0.59175 1.56485,-0.71653 1.1319,-0.24956 2.34495,-0.16862 3.40831,-0.62986 0.62638,-0.27169 1.16379,-0.71896 1.62235,-1.22482 0.45856,-0.50586 0.84458,-1.07209 1.23485,-1.63232 2.33174,-3.34725 4.97701,-6.64233 8.5714,-8.57143 0.62347,-0.33462 1.27659,-0.62891 1.82684,-1.07377 0.27513,-0.22243 0.52281,-0.48242 0.70791,-0.78393 0.18511,-0.30151 0.30613,-0.64602 0.32235,-0.99944 0.0226,-0.49259 -0.15518,-0.96922 -0.24845,-1.45343 -0.0466,-0.2421 -0.0723,-0.49084 -0.0408,-0.73537 0.0315,-0.24453 0.12342,-0.48585 0.28921,-0.66834 0.16832,-0.18527 0.40473,-0.30062 0.65009,-0.35015 0.24537,-0.0495 0.49993,-0.0367 0.74662,0.006 0.49337,0.0849 0.96324,0.28627 1.46049,0.34437 0.76893,0.0898 1.57274,-0.18957 2.12015,-0.73699 0.5474,-0.54742 0.8268,-1.35123 0.73695,-2.12016"
       id="path4724-2"
       inkscape:path-effect="#path-effect4726-7"
       inkscape:original-d="m 29.795051,820.3541 c 80.854699,-17.9677 -22.0560896,6.5667 45.71429,-14.2857 4.38448,-1.3491 33.961289,-5.078 37.142859,-5.7143 45.90738,-9.1814 -0.18888,-3.171 45.71428,-8.5714 8.56511,-1.0077 17.14286,-1.9048 25.71429,-2.8571 8.57143,-0.9524 17.13749,-1.9544 25.71428,-2.8572 9.51872,-1.002 19.05271,-1.8552 28.57142,-2.8571 8.5768,-0.9028 17.1567,-1.7875 25.7143,-2.8572 6.6823,-0.8353 13.2828,-2.3773 20,-2.8571 66.9766,0 -6.1859,2.1082 28.5714,-2.8572 3.7713,-0.5387 7.6191,0 11.4286,0 1.9048,0 3.8664,0.462 5.7143,0 2.066,-0.5165 3.6137,-2.507 5.7143,-2.8571 3.7577,-0.6263 7.619,0 11.4285,0 1.9048,0 3.8465,0.3736 5.7143,0 2.9532,-0.5906 5.7143,-1.9048 8.5715,-2.8571 3.8095,0 7.6708,0.6262 11.4285,0 2.1006,-0.3501 3.6061,-2.556 5.7143,-2.8572 48.2405,-6.8915 -4.2061,5.2116 20,-2.8571 0.9035,-0.3012 1.9048,0 2.8572,0 0.9523,0 2.1837,0.6734 2.8571,0 0.6734,-0.6735 -0.6734,-2.1837 0,-2.8572 0.6652,-0.6651 4.5224,0.596 5.7143,0 1.2047,-0.6023 1.9047,-1.9047 2.8571,-2.8571 1.9048,-0.9524 3.737,-2.0662 5.7143,-2.8572 2.7963,-1.1185 5.7143,-1.9047 8.5714,-2.8571 4.7619,-1.9048 9.5717,-3.694 14.2858,-5.7143 8.6214,-3.6949 17.1208,-7.6689 25.7142,-11.4286 10.4799,-4.5849 36.8331,-15.5593 45.7143,-20 6.8677,-3.4338 13.3676,-7.5596 20,-11.4285 4.7968,-2.7982 9.5238,-5.7143 14.2857,-8.5715 4.7619,-2.8571 9.6651,-5.491 14.2858,-8.5714 3.9621,-2.6414 7.4664,-5.93 11.4285,-8.5714 4.6206,-3.0804 9.7363,-5.3868 14.2857,-8.5714 4.9959,-3.4971 9.2718,-7.9574 14.2858,-11.4286 7.3871,-5.1142 15.2993,-9.4272 22.8571,-14.2857 5.777,-3.71379 11.3488,-7.74148 17.1429,-11.42859 4.685,-2.98143 9.5765,-5.62819 14.2857,-8.57143 2.9119,-1.81994 5.5001,-4.17862 8.5714,-5.71429 0.8518,-0.42591 2.1837,0.67344 2.8571,0 0.6735,-0.67343 -0.6734,-2.1837 0,-2.85714 0.6735,-0.67343 2.1837,0.67344 2.8572,0 0.6734,-0.67343 -0.6735,-2.18371 0,-2.85714 0.6734,-0.67344 2.1837,0.67343 2.8571,0 0.6735,-0.67344 -0.6734,-2.18371 0,-2.85714 1.5059,-1.50585 3.9424,-1.67586 5.7143,-2.85715 1.1207,-0.74711 1.9048,-1.90476 2.8572,-2.85714 2.8571,-2.85714 5.7142,-5.71429 8.5714,-8.57143 0.9524,-0.95238 2.2548,-1.65246 2.8571,-2.85714 0.4259,-0.85184 -0.6734,-2.18371 0,-2.85714 0.6735,-0.67344 2.1837,0.67343 2.8572,0 3.8095,-3.80953 -4.7619,-2.85715 2.8571,-2.85715"
       inkscape:connector-curvature="0" />
    <rect
       style="opacity:1;fill:#000000;fill-opacity:1;stroke:none;stroke-width:30;stroke-linejoin:miter;stroke-miterlimit:4;stroke-dasharray:none;stroke-opacity:0.27761195"
       id="rect4746"
       width="127.1533"
       height="62.857178"
       x="738.56097"
       y="709.50507" />
    <rect
       style="opacity:1;fill:#000000;fill-opacity:1;stroke:none;stroke-width:30;stroke-linejoin:miter;stroke-miterlimit:4;stroke-dasharray:none;stroke-opacity:0.27761195"
       id="rect4746-3"
       width="127.1533"
       height="62.857178"
       x="735.71429"
       y="535.2193" />
    <rect
       style="opacity:1;fill:#e2e400;fill-opacity:0.72238809;stroke:none;stroke-width:30;stroke-linejoin:miter;stroke-miterlimit:4;stroke-dasharray:none;stroke-opacity:0.27761195"
       id="rect4765"
       width="260"
       height="117.14286"
       x="782.85712"
       y="595.21936" />
    <rect
       style="opacity:1;fill:#000000;fill-opacity:1;stroke:none;stroke-width:30;stroke-linejoin:miter;stroke-miterlimit:4;stroke-dasharray:none;stroke-opacity:0.27761195"
       id="rect4746-6"
       width="127.1533"
       height="62.857178"
       x="934.98956"
       y="706.07648" />
    <rect
       style="opacity:1;fill:#000000;fill-opacity:1;stroke:none;stroke-width:30;stroke-linejoin:miter;stroke-miterlimit:4;stroke-dasharray:none;stroke-opacity:0.27761195"
       id="rect4746-3-3"
       width="127.1533"
       height="62.857178"
       x="932.14288"
       y="531.79077" />
    <rect
       style="opacity:1;fill:#969696;fill-opacity:1;stroke:none;stroke-width:30;stroke-linejoin:miter;stroke-miterlimit:4;stroke-dasharray:none;stroke-opacity:0.27761195"
       id="rect4785"
       width="42.857143"
       height="54.285713"
       x="1031.4286"
       y="623.79077" />
    <rect
       style="opacity:1;fill:#828282;fill-opacity:1;stroke:none;stroke-width:30;stroke-linejoin:miter;stroke-miterlimit:4;stroke-dasharray:none;stroke-opacity:0.27761195"
       id="rect4787"
       width="20"
       height="214.28572"
       x="1062.8572"
       y="540.93365" />
    <rect
       style="opacity:1;fill:#969696;fill-opacity:1;stroke:none;stroke-width:30;stroke-linejoin:miter;stroke-miterlimit:4;stroke-dasharray:none;stroke-opacity:0.27761195"
       id="rect4789"
       width="97.14286"
       height="245.71428"
       x="1082.8572"
       y="523.79077" />
    <rect
       style="opacity:1;fill:#323232;fill-opacity:1;stroke:none;stroke-width:30;stroke-linejoin:miter;stroke-miterlimit:4;stroke-dasharray:none;stroke-opacity:0.27761195"
       id="rect4791"
       width="11.428572"
       height="85.714287"
       x="1002.8571"
       y="609.50507" />
    <rect
       style="opacity:1;fill:#323232;fill-opacity:1;stroke:none;stroke-width:30;stroke-linejoin:miter;stroke-miterlimit:4;stroke-dasharray:none;stroke-opacity:0.27761195"
       id="rect4791-2"
       width="11.428572"
       height="85.714287"
       x="985.14288"
       y="610.36218" />
    <rect
       style="opacity:1;fill:#323232;fill-opacity:1;stroke:none;stroke-width:30;stroke-linejoin:miter;stroke-miterlimit:4;stroke-dasharray:none;stroke-opacity:0.27761195"
       id="rect4791-3"
       width="11.428572"
       height="85.714287"
       x="963.71429"
       y="610.07648" />
    <rect
       style="opacity:1;fill:#bc9e00;fill-opacity:1;stroke:none;stroke-width:30;stroke-linejoin:miter;stroke-miterlimit:4;stroke-dasharray:none;stroke-opacity:0.27761195"
       id="rect4814"
       width="114.28571"
       height="82.85714"
       x="814.28571"
       y="612.36218" />
    <rect
       style="opacity:1;fill:#bcbac0;fill-opacity:1;stroke:none;stroke-width:30;stroke-linejoin:miter;stroke-miterlimit:4;stroke-dasharray:none;stroke-opacity:0.27761195"
       id="rect4816"
       width="548.57141"
       height="308.57144"
       x="37.142857"
       y="323.79077" />
    <rect
       style="opacity:1;fill:#bcbac0;fill-opacity:1;stroke:none;stroke-width:30;stroke-linejoin:miter;stroke-miterlimit:4;stroke-dasharray:none;stroke-opacity:0.27761195"
       id="rect4818"
       width="502.85715"
       height="28.571428"
       x="677.14288"
       y="909.50507" />
    <rect
       style="opacity:1;fill:#bcbac0;fill-opacity:1;stroke:none;stroke-width:30;stroke-linejoin:miter;stroke-miterlimit:4;stroke-dasharray:none;stroke-opacity:0.27761195"
       id="rect4820"
       width="531.42859"
       height="37.142857"
       x="660"
       y="966.64789" />
    <rect
       style="opacity:1;fill:#bcbac0;fill-opacity:1;stroke:none;stroke-width:30;stroke-linejoin:miter;stroke-miterlimit:4;stroke-dasharray:none;stroke-opacity:0.27761195"
       id="rect4822"
       width="470.44305"
       height="31.428572"
       x="-542.85712"
       y="-1006.6479"
       transform="scale(-1,-1)" />
  </g>
</svg>
